Cover:  
http://www.shotpix.com/images/10215792716173239219.png

Release Title: Kelly Clarkson - Stronger (What Doesn't Kill You) (2011)

Music video by Kelly Clarkson performing Stronger (What Doesn't Kill You). (C) 2011 RCA Records, a division of Sony Music Entertainment.

                                 1080p Full HD MP4 Video
                                           +
                                 128 Kbps/VBR M4A Audio

Sing Along!
Softcoded English subtitles included (Lyrics on screen). Can be disabled according to your liking.


General
Complete name                  : Kelly Clarkson - Stronger (What Doesn't Kill You) (1080p) x264 [VX] [P2PDL].mp4
Format                         : MPEG-4
Format profile                 : Base Media / Version 2
Codec ID                       : mp42
File size                      : 41.8 MiB
Duration                       : 3mn 40s

Video
ID                             : 1
Format                         : AVC
Format/Info                    : Advanced Video Codec
Duration                       : 3mn 40s
Bit rate mode                  : Variable
Bit rate                       : 1 450 Kbps
Width                          : 1 920 pixels
Height                         : 1 080 pixels
Display aspect ratio           : 16:9
Frame rate mode                : Variable
Frame rate                     : 23.976 fps
Scan type                      : Progressive
Stream size                    : 38.3 MiB (92%)
Writing library                : x264 core 128

Audio
ID                             : 2
Format                         : AAC
Format/Info                    : Advanced Audio Codec
Format profile                 : LC
Codec ID                       : 40
Duration                       : 3mn 40s
Bit rate mode                  : Variable
Bit rate                       : 128 Kbps
Channel(s)                     : 2 channels
Channel positions              : Front: L R
Sampling rate                  : 48.0 KHz
Compression mode               : Lossy
Stream size                    : 3.36 MiB (8%)


Subtitles                      : Yes (English)

Screens:
 
http://www.shotpix.com/images/44923638546418247051.jpg 
http://www.shotpix.com/images/42224098413039223873.jpg

Thumbs:
 
http://www.shotpix.com/images/44835661222864410495.jpg
------------------------------------------------------------------------


Notes:

* Recommended to use latest version VLC Media Player.
* Install shark007 codecs in case of any kind of problem in playback (For non-VLC Media Player users).
* Alternatively, install Core AVC codecs, the fastest decoder that there is coupled with Community Center Codec Pack and play on Windows Media Player Classic.
* Read NFO
* Help in seeding as much as you can. 


Greets to: VYTO, k1ng_rulz, staff members at ExtraTorrent, TPB,KAT, 1337x, PublicHD, Ahashare,
SilverTorrent, TorrentMafia, Digtorrent, BTScene, P2PDL, and all others


Encoder Notes: Looking For Early Access To Anything You Can Provide DVDScr, R5, DVDRips, BluRay, Direct Audio, Early Music
Releases, Seedboxes, Links, Dedicated Servers anything u can provide, Advance / Promo CDs/DVDs. If You Got anything to
offer contact me at "prg@hush.com"


Facebook Fan Page: www . facebook . com / p2pdl

                                 Enjoy!